<?xml version="1.0" encoding="UTF-8"?>
<svg id="Layer_2" data-name="Layer 2" xmlns="http://www.w3.org/2000/svg" xmlns:xlink="http://www.w3.org/1999/xlink" viewBox="0 0 134.16 134.26">
  <defs>
    <style>
      .cls-1 {
        fill: url(#linear-gradient-2);
      }

      .cls-2 {
        fill: url(#linear-gradient-5);
      }

      .cls-3 {
        fill: url(#linear-gradient-3);
      }

      .cls-4 {
        fill: url(#linear-gradient);
      }

      .cls-5 {
        fill: url(#linear-gradient-4);
      }
    </style>
    <linearGradient id="linear-gradient" x1="48.95" y1="91.73" x2="133.99" y2="91.73" gradientUnits="userSpaceOnUse">
      <stop offset="0" stop-color="#8236fb"/>
      <stop offset="1" stop-color="#120b3e"/>
    </linearGradient>
    <linearGradient id="linear-gradient-2" x1="0" y1="67.21" x2="134.16" y2="67.21" xlink:href="#linear-gradient"/>
    <linearGradient id="linear-gradient-3" x1=".03" y1="42.49" x2="85.15" y2="42.49" xlink:href="#linear-gradient"/>
    <linearGradient id="linear-gradient-4" x1="93.84" y1="114.35" x2="133.99" y2="114.35" xlink:href="#linear-gradient"/>
    <linearGradient id="linear-gradient-5" x1=".03" y1="20.38" x2="40.18" y2="20.38" xlink:href="#linear-gradient"/>
  </defs>
  <g id="Layer_1-2" data-name="Layer 1">
    <g>
      <path class="cls-4" d="m100.52,54.99c-1.98,2.09-3.48,4.58-4.4,7.3-.98,2.67-1.34,5.53-1.06,8.36h0c.28,3.32-.17,6.66-1.32,9.79-1.1,3.15-2.91,6.01-5.3,8.36-2.36,2.36-5.22,4.17-8.37,5.29-3.13,1.15-6.48,1.6-9.8,1.32h0c-4-.38-8.02.49-11.5,2.49-7.1,4.08-10.9,12.14-9.54,20.21,1.42,8.1,7.78,14.45,15.9,15.87,10.61,1.87,20.72-5.2,22.59-15.79.31-1.77.38-3.58.2-5.37h0c-.3-3.32.14-6.65,1.27-9.79,3.57-9.74,13.23-15.89,23.58-15.02h0c3.26.32,6.54-.21,9.54-1.53,6.08-2.68,10.39-8.26,11.45-14.81,1.69-10.59-5.55-20.53-16.16-22.22-6.18-.98-12.45,1.07-16.86,5.5l-.21.05Z"/>
      <path class="cls-1" d="m65.27,86.84h0c2.9.31,5.84-.04,8.58-1.03,5.59-1.96,9.98-6.35,11.95-11.93.98-2.74,1.35-5.67,1.09-8.57h0c-.3-3.42.14-6.86,1.3-10.09,1.18-3.21,3.04-6.13,5.43-8.57,4.92-4.91,11.76-7.41,18.69-6.83h0c4.09.38,8.2-.49,11.79-2.49,9.6-5.5,12.91-17.74,7.4-27.32-.87-1.51-1.93-2.9-3.16-4.13-2.99-2.87-6.77-4.76-10.86-5.42-10.88-1.91-21.24,5.33-23.16,16.19-.32,1.82-.39,3.67-.2,5.5h0c.3,3.4-.14,6.82-1.3,10.03-1.17,3.22-3.03,6.14-5.43,8.57-2.42,2.42-5.36,4.27-8.58,5.42-3.23,1.18-6.68,1.64-10.1,1.36h0c-2.9-.29-5.83.07-8.58,1.03-2.76.97-5.26,2.54-7.33,4.61-2.06,2.08-3.66,4.57-4.67,7.32-.96,2.75-1.31,5.67-1.03,8.57h0c.32,3.41-.15,6.83-1.36,10.03-1.15,3.23-3,6.15-5.43,8.57-4.92,4.91-11.76,7.41-18.69,6.83h0c-11.01-.88-20.64,7.3-21.53,18.29-.81,10.12,6.11,19.24,16.1,21.18,10.87,1.91,21.24-5.33,23.16-16.19.32-1.82.39-3.67.2-5.5h0c-.26-3.4.2-6.82,1.36-10.03,1.15-3.23,3-6.15,5.43-8.57,2.44-2.4,5.37-4.25,8.58-5.42,3.23-1.18,6.68-1.64,10.1-1.36l.27-.05Z"/>
      <path class="cls-3" d="m33.5,79.11c2.02-2.01,3.55-4.45,4.5-7.14.94-2.67,1.29-5.53,1.01-8.35h0c-.57-6.74,1.87-13.4,6.67-18.18,2.37-2.35,5.22-4.16,8.37-5.29,3.14-1.18,6.51-1.63,9.85-1.32h0c8.17.74,15.93-3.69,19.43-11.1,1.69-3.61,2.23-7.65,1.54-11.57-1.37-8.12-7.75-14.49-15.89-15.86-10.57-1.87-20.65,5.17-22.53,15.71-.32,1.79-.38,3.62-.19,5.43h0c.28,3.34-.17,6.69-1.32,9.83-3.56,9.71-13.18,15.86-23.51,15.01h0C11.13,45.21,1.8,52.4.24,62.62c-.48,3.23-.15,6.54.95,9.62,1.05,3.05,2.88,5.78,5.29,7.93,2.46,2.17,5.43,3.67,8.63,4.39,6.49,1.38,13.25-.61,17.95-5.29l.42-.16Z"/>
      <ellipse class="cls-5" cx="113.91" cy="114.35" rx="20.08" ry="19.92"/>
      <ellipse class="cls-2" cx="20.11" cy="20.38" rx="20.08" ry="19.92"/>
    </g>
  </g>
</svg>