<?xml version="1.0" encoding="UTF-8"?>
<svg id="Layer_2" data-name="Layer 2" xmlns="http://www.w3.org/2000/svg" viewBox="0 0 365.18 134.9">
  <defs>
    <style>
      .cls-1 {
        fill: #120b3e;
      }

      .cls-2 {
        fill: #8236fb;
      }
    </style>
  </defs>
  <g id="Layer_1-2" data-name="Layer 1">
    <g>
      <g>
        <path class="cls-2" d="m101,55.25c-1.99,2.1-3.49,4.6-4.42,7.33-.98,2.68-1.35,5.55-1.06,8.4h0c.28,3.34-.18,6.69-1.33,9.83-1.11,3.17-2.93,6.04-5.32,8.4-2.37,2.38-5.24,4.19-8.41,5.31-3.15,1.15-6.51,1.61-9.85,1.33h0c-4.02-.38-8.06.49-11.55,2.5-7.13,4.1-10.95,12.2-9.58,20.3,1.43,8.14,7.82,14.52,15.97,15.94,10.66,1.88,20.82-5.22,22.7-15.86.31-1.78.38-3.6.2-5.39h0c-.3-3.33.14-6.69,1.28-9.83,3.59-9.78,13.29-15.96,23.69-15.09h0c3.27.32,6.58-.21,9.58-1.54,6.11-2.69,10.44-8.3,11.5-14.88,1.69-10.64-5.58-20.63-16.23-22.32-6.21-.98-12.51,1.07-16.94,5.53l-.21.05Z"/>
        <path class="cls-2" d="m65.58,87.25h0c2.91.31,5.87-.04,8.62-1.04,5.62-1.97,10.03-6.38,12.01-11.99.98-2.76,1.36-5.69,1.09-8.61h0c-.31-3.43.14-6.89,1.31-10.13,1.19-3.23,3.05-6.16,5.46-8.61,4.94-4.94,11.81-7.45,18.78-6.86h0c4.11.38,8.24-.5,11.84-2.51,9.64-5.53,12.97-17.82,7.43-27.45-.87-1.51-1.94-2.91-3.18-4.15-3-2.88-6.81-4.78-10.92-5.45-10.93-1.92-21.34,5.36-23.27,16.26-.32,1.83-.39,3.69-.2,5.53h0c.31,3.42-.14,6.85-1.31,10.08-1.17,3.23-3.04,6.17-5.46,8.61-2.43,2.43-5.38,4.29-8.62,5.45-3.25,1.18-6.71,1.65-10.15,1.36h0c-2.91-.29-5.86.07-8.62,1.03-2.77.98-5.29,2.56-7.37,4.63-2.07,2.09-3.68,4.59-4.69,7.35-.97,2.76-1.32,5.7-1.04,8.61h0c.32,3.42-.15,6.86-1.36,10.08-1.15,3.24-3.02,6.18-5.46,8.61-4.94,4.94-11.81,7.45-18.78,6.86h0c-11.06-.89-20.74,7.34-21.63,18.38-.82,10.17,6.14,19.33,16.17,21.28,10.92,1.92,21.34-5.36,23.27-16.26.32-1.83.39-3.69.2-5.53h0c-.26-3.42.2-6.85,1.36-10.08,1.16-3.24,3.02-6.18,5.46-8.61,2.45-2.41,5.39-4.27,8.62-5.45,3.24-1.19,6.71-1.65,10.15-1.36l.27-.05Z"/>
        <path class="cls-2" d="m33.66,79.48c2.03-2.02,3.57-4.47,4.52-7.17.95-2.69,1.29-5.55,1.01-8.39h0c-.57-6.78,1.88-13.46,6.7-18.27,2.38-2.36,5.25-4.18,8.41-5.31,3.15-1.18,6.54-1.64,9.9-1.33h0c8.21.74,16.01-3.71,19.52-11.15,1.7-3.63,2.24-7.69,1.54-11.63-1.38-8.16-7.78-14.56-15.96-15.93-10.62-1.88-20.75,5.19-22.63,15.79-.32,1.8-.38,3.64-.19,5.45h0c.28,3.35-.17,6.72-1.33,9.88-3.58,9.76-13.25,15.93-23.62,15.08h0C11.18,45.42,1.81,52.65.25,62.91c-.48,3.25-.15,6.57.96,9.66,1.06,3.07,2.89,5.81,5.32,7.97,2.47,2.18,5.45,3.69,8.67,4.41,6.52,1.39,13.31-.61,18.03-5.31l.43-.16Z"/>
        <ellipse class="cls-2" cx="114.45" cy="114.89" rx="20.17" ry="20.01"/>
        <ellipse class="cls-2" cx="20.2" cy="20.47" rx="20.17" ry="20.01"/>
      </g>
      <g>
        <path class="cls-1" d="m186.51,18.29v36.69h-7.73V18.29h7.73Zm5.27,36.69h-9.55v-6.65h9.21c2.31,0,4.26-.41,5.82-1.22,1.57-.81,2.75-2.08,3.55-3.82s1.2-3.96,1.2-6.69-.4-4.92-1.2-6.65-1.98-2.99-3.55-3.8c-1.57-.81-3.5-1.22-5.8-1.22h-9.38v-6.65h9.82c3.7,0,6.87.73,9.53,2.2s4.7,3.57,6.13,6.3c1.43,2.73,2.14,6,2.14,9.81s-.72,7.11-2.16,9.85c-1.44,2.74-3.49,4.85-6.17,6.32-2.68,1.47-5.88,2.2-9.6,2.2Z"/>
        <path class="cls-1" d="m213.39,54.98V18.29h24.72v6.4h-16.99v8.62h15.71v6.28h-15.71v8.99h17.04v6.4h-24.77Z"/>
        <path class="cls-1" d="m242.22,54.98V18.29h24.72v6.4h-16.99v8.62h15.71v6.28h-15.71v8.99h17.04v6.4h-24.77Z"/>
        <path class="cls-1" d="m271.04,54.98V18.29h14.46c2.77,0,5.14.53,7.1,1.59,1.96,1.06,3.46,2.52,4.51,4.39s1.56,4.03,1.56,6.48-.53,4.57-1.58,6.43c-1.05,1.86-2.57,3.31-4.57,4.35-1.99,1.04-4.4,1.56-7.23,1.56h-9.21v-6.21h7.95c1.49,0,2.73-.26,3.71-.79.98-.52,1.71-1.25,2.19-2.17.48-.92.72-1.98.72-3.18s-.24-2.3-.72-3.21c-.48-.91-1.22-1.62-2.2-2.13-.98-.51-2.22-.76-3.72-.76h-5.25v30.34h-7.73Z"/>
        <path class="cls-1" d="m178.78,115.49v-36.69h7.73v15.14h15.76v-15.14h7.73v36.69h-7.73v-15.17h-15.76v15.17h-7.73Z"/>
        <path class="cls-1" d="m212.16,78.8h8.69l8.37,15.81h.35l8.37-15.81h8.69l-13.37,23.74v12.95h-7.71v-12.95l-13.4-23.74Z"/>
        <path class="cls-1" d="m248.82,115.49v-36.69h14.68c2.69,0,4.94.4,6.75,1.21,1.81.8,3.16,1.91,4.08,3.32.91,1.41,1.37,3.04,1.37,4.88,0,1.43-.29,2.68-.87,3.77-.58,1.08-1.37,1.97-2.36,2.66-.99.69-2.13,1.17-3.41,1.45v.37c1.4.07,2.71.46,3.94,1.18,1.23.72,2.23,1.74,2.99,3.04.76,1.31,1.14,2.86,1.14,4.67,0,1.94-.48,3.67-1.44,5.21-.96,1.53-2.38,2.74-4.25,3.62-1.87.88-4.19,1.32-6.94,1.32h-15.66Zm7.73-21.32h5.76c1.07,0,2.02-.19,2.84-.57.83-.38,1.48-.92,1.96-1.61.47-.7.71-1.53.71-2.5,0-1.31-.46-2.38-1.39-3.19-.93-.81-2.25-1.22-3.98-1.22h-5.91v9.09Zm0,15h6.35c2.15,0,3.72-.42,4.72-1.26.99-.84,1.49-1.95,1.49-3.33,0-1.02-.24-1.91-.73-2.69s-1.18-1.39-2.08-1.84c-.9-.44-1.98-.66-3.22-.66h-6.53v9.78Z"/>
        <path class="cls-1" d="m280.08,115.49v-36.69h14.46c2.77,0,5.14.49,7.1,1.48,1.96.98,3.46,2.38,4.51,4.17,1.04,1.8,1.56,3.91,1.56,6.34s-.53,4.52-1.58,6.28c-1.05,1.76-2.57,3.1-4.57,4.03-1.99.93-4.4,1.39-7.23,1.39h-9.68v-6.23h8.42c1.49,0,2.73-.21,3.71-.62.98-.41,1.71-1.02,2.19-1.82.48-.8.72-1.81.72-3.03s-.24-2.26-.72-3.09c-.48-.83-1.22-1.46-2.2-1.9-.98-.43-2.22-.65-3.72-.65h-5.25v30.34h-7.73Zm20.37,0l-8.94-16.7h8.37l9.14,16.7h-8.57Z"/>
        <path class="cls-1" d="m318.88,78.8v36.69h-7.73v-36.69h7.73Z"/>
        <path class="cls-1" d="m330.94,78.8v36.69h-7.73v-36.69h7.73Zm5.27,36.69h-9.55v-6.65h9.21c2.31,0,4.26-.41,5.82-1.22,1.57-.81,2.75-2.08,3.55-3.82.8-1.73,1.2-3.96,1.2-6.69s-.4-4.92-1.2-6.65c-.8-1.72-1.98-2.99-3.55-3.8-1.57-.81-3.5-1.22-5.8-1.22h-9.38v-6.65h9.82c3.7,0,6.87.73,9.53,2.2,2.66,1.47,4.7,3.57,6.13,6.3,1.43,2.73,2.14,6,2.14,9.81s-.72,7.11-2.16,9.85c-1.44,2.74-3.49,4.85-6.17,6.32-2.68,1.47-5.88,2.2-9.6,2.2Z"/>
        <path class="cls-1" d="m360.84,115.96c-1.22,0-2.24-.41-3.08-1.23-.84-.82-1.26-1.84-1.26-3.05s.42-2.23,1.26-3.05c.84-.82,1.86-1.23,3.08-1.23s2.24.41,3.08,1.23c.84.82,1.26,1.84,1.26,3.05s-.42,2.23-1.26,3.05c-.84.82-1.86,1.23-3.08,1.23Z"/>
      </g>
    </g>
  </g>
</svg>