<?xml version="1.0" encoding="UTF-8"?>
<svg id="Layer_2" data-name="Layer 2" xmlns="http://www.w3.org/2000/svg" viewBox="0 0 181.03 66.87">
  <defs>
    <style>
      .cls-1 {
        fill: #fff;
      }

      .cls-2 {
        fill: #8236fb;
      }
    </style>
  </defs>
  <g id="Layer_1-2" data-name="Layer 1">
    <g>
      <path class="cls-2" d="m50.07,27.39c-.98,1.04-1.73,2.28-2.19,3.64-.49,1.33-.67,2.75-.53,4.16h0c.14,1.65-.09,3.32-.66,4.87-.55,1.57-1.45,3-2.64,4.16-1.18,1.18-2.6,2.08-4.17,2.63-1.56.57-3.23.8-4.88.66h0c-1.99-.19-3.99.24-5.73,1.24-3.53,2.03-5.43,6.05-4.75,10.06.71,4.04,3.87,7.2,7.92,7.9,5.28.93,10.32-2.59,11.25-7.86.16-.88.19-1.78.1-2.67h0c-.15-1.65.07-3.31.63-4.87,1.78-4.85,6.59-7.91,11.75-7.48h0c1.62.16,3.26-.1,4.75-.76,3.03-1.34,5.18-4.11,5.7-7.38.84-5.27-2.77-10.23-8.05-11.07-3.08-.49-6.2.53-8.4,2.74l-.11.03Z"/>
      <path class="cls-2" d="m32.51,43.25h0c1.44.15,2.91-.02,4.27-.51,2.78-.98,4.97-3.16,5.95-5.94.49-1.37.67-2.82.54-4.27h0c-.15-1.7.07-3.42.65-5.02.59-1.6,1.51-3.05,2.71-4.27,2.45-2.45,5.86-3.69,9.31-3.4h0c2.04.19,4.09-.25,5.87-1.24,4.78-2.74,6.43-8.83,3.69-13.61-.43-.75-.96-1.44-1.57-2.06-1.49-1.43-3.37-2.37-5.41-2.7-5.42-.95-10.58,2.65-11.53,8.06-.16.9-.19,1.83-.1,2.74h0c.15,1.69-.07,3.4-.65,5-.58,1.6-1.51,3.06-2.71,4.27-1.21,1.2-2.67,2.13-4.27,2.7-1.61.59-3.33.82-5.03.68h0c-1.44-.14-2.91.03-4.27.51-1.37.48-2.62,1.27-3.65,2.3-1.03,1.03-1.82,2.28-2.33,3.65-.48,1.37-.65,2.83-.51,4.27h0c.16,1.7-.08,3.4-.68,5-.57,1.61-1.5,3.07-2.71,4.27-2.45,2.45-5.85,3.69-9.31,3.4h0c-5.48-.44-10.28,3.64-10.72,9.11-.41,5.04,3.04,9.58,8.02,10.55,5.41.95,10.58-2.65,11.53-8.06.16-.9.19-1.83.1-2.74h0c-.13-1.69.1-3.4.68-5,.57-1.61,1.5-3.06,2.71-4.27,1.21-1.2,2.67-2.12,4.27-2.7,1.61-.59,3.33-.82,5.03-.68l.14-.03Z"/>
      <path class="cls-2" d="m16.68,39.4c1-1,1.77-2.22,2.24-3.55.47-1.33.64-2.75.5-4.16h0c-.28-3.36.93-6.67,3.32-9.06,1.18-1.17,2.6-2.07,4.17-2.63,1.56-.59,3.24-.81,4.91-.66h0c4.07.37,7.94-1.84,9.68-5.53.84-1.8,1.11-3.81.76-5.77-.68-4.05-3.86-7.22-7.91-7.9-5.26-.93-10.29,2.57-11.22,7.83-.16.89-.19,1.8-.09,2.7h0c.14,1.66-.08,3.33-.66,4.9-1.77,4.84-6.57,7.9-11.71,7.48h0C5.54,22.52.9,26.1.12,31.19c-.24,1.61-.08,3.26.47,4.79.52,1.52,1.43,2.88,2.64,3.95,1.23,1.08,2.7,1.83,4.3,2.19,3.23.69,6.6-.3,8.94-2.63l.21-.08Z"/>
      <ellipse class="cls-2" cx="56.74" cy="56.95" rx="10" ry="9.92"/>
      <ellipse class="cls-2" cx="10.01" cy="10.15" rx="10" ry="9.92"/>
    </g>
    <g>
      <path class="cls-1" d="m92.46,9.07v18.19h-3.83V9.07h3.83Zm2.61,18.19h-4.74v-3.3h4.57c1.15,0,2.11-.2,2.89-.6.78-.4,1.36-1.03,1.76-1.89s.59-1.96.59-3.31-.2-2.44-.59-3.3-.98-1.48-1.76-1.89c-.78-.4-1.74-.6-2.87-.6h-4.65v-3.3h4.87c1.83,0,3.41.36,4.72,1.09s2.33,1.77,3.04,3.12c.71,1.35,1.06,2.98,1.06,4.86s-.36,3.52-1.07,4.88-1.73,2.4-3.06,3.13c-1.33.73-2.91,1.09-4.76,1.09Z"/>
      <path class="cls-1" d="m105.79,27.25V9.07h12.26v3.17h-8.42v4.27h7.79v3.11h-7.79v4.46h8.45v3.17h-12.28Z"/>
      <path class="cls-1" d="m120.08,27.25V9.07h12.26v3.17h-8.42v4.27h7.79v3.11h-7.79v4.46h8.45v3.17h-12.28Z"/>
      <path class="cls-1" d="m134.37,27.25V9.07h7.17c1.38,0,2.55.26,3.52.79.97.53,1.72,1.25,2.23,2.18s.78,2,.78,3.21-.26,2.27-.78,3.19c-.52.92-1.28,1.64-2.26,2.16-.99.52-2.18.77-3.58.77h-4.57v-3.08h3.94c.74,0,1.35-.13,1.84-.39.48-.26.85-.62,1.09-1.07.24-.46.36-.98.36-1.57s-.12-1.14-.36-1.59c-.24-.45-.6-.8-1.09-1.06-.49-.25-1.1-.38-1.84-.38h-2.6v15.04h-3.83Z"/>
      <path class="cls-1" d="m88.63,57.25v-18.19h3.83v7.51h7.81v-7.51h3.83v18.19h-3.83v-7.52h-7.81v7.52h-3.83Z"/>
      <path class="cls-1" d="m105.17,39.07h4.31l4.15,7.84h.17l4.15-7.84h4.31l-6.63,11.77v6.42h-3.82v-6.42l-6.64-11.77Z"/>
      <path class="cls-1" d="m123.35,57.25v-18.19h7.28c1.33,0,2.45.2,3.34.6.9.4,1.57.95,2.02,1.65.45.7.68,1.51.68,2.42,0,.71-.15,1.33-.43,1.87-.29.54-.68.98-1.17,1.32-.49.34-1.06.58-1.69.72v.18c.69.03,1.34.23,1.95.59.61.36,1.11.86,1.48,1.51.38.65.57,1.42.57,2.31,0,.96-.24,1.82-.71,2.58-.48.76-1.18,1.36-2.11,1.79-.93.44-2.08.65-3.44.65h-7.76Zm3.83-10.57h2.86c.53,0,1-.09,1.41-.28.41-.19.73-.45.97-.8.24-.35.35-.76.35-1.24,0-.65-.23-1.18-.69-1.58-.46-.4-1.12-.6-1.97-.6h-2.93v4.5Zm0,7.43h3.15c1.07,0,1.84-.21,2.34-.62.49-.42.74-.96.74-1.65,0-.5-.12-.95-.36-1.34s-.58-.69-1.03-.91c-.45-.22-.98-.33-1.6-.33h-3.24v4.85Z"/>
      <path class="cls-1" d="m138.84,57.25v-18.19h7.17c1.38,0,2.55.24,3.52.73.97.49,1.72,1.18,2.23,2.07.52.89.78,1.94.78,3.14s-.26,2.24-.78,3.11-1.28,1.54-2.26,2c-.99.46-2.18.69-3.58.69h-4.8v-3.09h4.17c.74,0,1.35-.1,1.84-.31s.85-.5,1.09-.9c.24-.4.36-.9.36-1.5s-.12-1.12-.36-1.53c-.24-.41-.6-.72-1.09-.94-.49-.21-1.1-.32-1.84-.32h-2.6v15.04h-3.83Zm10.1,0l-4.43-8.28h4.15l4.53,8.28h-4.25Z"/>
      <path class="cls-1" d="m158.08,39.07v18.19h-3.83v-18.19h3.83Z"/>
      <path class="cls-1" d="m164.06,39.07v18.19h-3.83v-18.19h3.83Zm2.61,18.19h-4.74v-3.3h4.57c1.15,0,2.11-.2,2.89-.6.78-.4,1.36-1.03,1.76-1.89s.59-1.96.59-3.31-.2-2.44-.59-3.3-.98-1.48-1.76-1.89c-.78-.4-1.74-.6-2.87-.6h-4.65v-3.3h4.87c1.83,0,3.41.36,4.72,1.09s2.33,1.77,3.04,3.12c.71,1.35,1.06,2.98,1.06,4.86s-.36,3.52-1.07,4.88-1.73,2.4-3.06,3.13c-1.33.73-2.91,1.09-4.76,1.09Z"/>
      <path class="cls-1" d="m178.88,57.49c-.6,0-1.11-.2-1.53-.61-.42-.41-.62-.91-.62-1.51s.21-1.11.62-1.51c.41-.41.92-.61,1.53-.61s1.11.2,1.53.61c.42.41.62.91.62,1.51s-.21,1.11-.62,1.51c-.41.41-.92.61-1.53.61Z"/>
    </g>
  </g>
</svg>